<svg id="svg" version="1.1" xmlns="http://www.w3.org/2000/svg" xmlns:xlink="http://www.w3.org/1999/xlink" width="400" height="400" viewBox="0, 0, 400,400"><g id="svgg"><path id="path0" d="M177.200 86.178 C 177.200 87.061,177.015 87.168,175.300 87.278 C 173.696 87.381,173.381 87.536,173.275 88.275 C 173.198 88.821,172.821 89.198,172.275 89.275 C 171.538 89.380,171.381 89.696,171.279 91.275 C 171.177 92.856,171.021 93.169,170.279 93.275 C 169.435 93.395,169.395 93.598,169.288 98.300 L 169.175 103.200 168.188 103.200 C 167.401 103.200,167.200 103.403,167.200 104.200 C 167.200 105.000,167.000 105.200,166.200 105.200 C 165.403 105.200,165.200 105.401,165.200 106.189 L 165.200 107.179 159.300 107.289 C 153.524 107.398,153.397 107.419,153.272 108.300 C 153.180 108.951,152.876 109.200,152.172 109.200 C 151.402 109.200,151.200 109.408,151.200 110.200 C 151.200 111.000,151.000 111.200,150.200 111.200 C 149.400 111.200,149.200 111.400,149.200 112.200 C 149.200 113.000,149.000 113.200,148.200 113.200 C 147.400 113.200,147.200 113.400,147.200 114.200 C 147.200 115.133,147.067 115.200,145.200 115.200 C 143.333 115.200,143.200 115.267,143.200 116.200 C 143.200 116.993,142.998 117.200,142.227 117.200 C 141.472 117.200,141.216 117.447,141.087 118.300 L 140.920 119.400 140.860 118.281 C 140.777 116.729,136.087 116.746,135.405 118.300 C 135.075 119.052,134.697 119.200,133.105 119.200 C 131.340 119.200,131.200 119.273,131.200 120.200 C 131.200 121.133,131.067 121.200,129.200 121.200 C 127.333 121.200,127.200 121.267,127.200 122.200 C 127.200 123.133,127.067 123.200,125.200 123.200 C 123.333 123.200,123.200 123.267,123.200 124.200 C 123.200 125.133,123.067 125.200,121.200 125.200 C 119.333 125.200,119.200 125.267,119.200 126.200 C 119.200 127.000,119.000 127.200,118.200 127.200 C 117.400 127.200,117.200 127.400,117.200 128.200 C 117.200 129.000,117.000 129.200,116.200 129.200 C 115.400 129.200,115.200 129.400,115.200 130.200 L 115.200 131.200 107.200 131.200 L 99.200 131.200 99.200 132.200 C 99.200 133.133,99.067 133.200,97.200 133.200 C 95.333 133.200,95.200 133.267,95.200 134.200 C 95.200 135.133,95.067 135.200,93.200 135.200 C 91.333 135.200,91.200 135.267,91.200 136.200 C 91.200 137.133,91.067 137.200,89.200 137.200 C 87.295 137.200,87.198 137.252,87.160 138.300 L 87.120 139.400 86.844 138.400 C 86.430 136.899,83.614 136.749,82.210 138.154 C 81.522 138.841,80.678 139.192,79.505 139.277 C 78.187 139.372,77.710 139.604,77.405 140.300 C 77.130 140.926,76.668 141.200,75.886 141.200 C 75.201 141.200,74.400 141.590,73.835 142.200 C 73.325 142.750,72.524 143.200,72.054 143.200 C 71.410 143.200,71.200 143.446,71.200 144.200 C 71.200 145.133,71.067 145.200,69.200 145.200 C 67.333 145.200,67.200 145.267,67.200 146.200 C 67.200 147.133,67.067 147.200,65.200 147.200 C 63.286 147.200,63.200 147.247,63.194 148.300 L 63.188 149.400 62.682 148.400 C 62.002 147.055,59.979 146.993,59.405 148.300 C 59.075 149.052,58.697 149.200,57.105 149.200 C 55.365 149.200,55.200 149.282,55.200 150.153 C 55.200 150.782,54.917 151.181,54.370 151.324 C 53.914 151.443,53.443 151.914,53.324 152.370 C 53.119 153.154,52.829 153.200,48.153 153.200 L 43.200 153.200 43.200 155.200 C 43.200 157.074,43.136 157.200,42.187 157.200 L 41.174 157.200 41.287 161.700 C 41.393 165.930,41.454 166.224,42.300 166.595 C 43.649 167.187,43.572 169.200,42.200 169.200 C 41.281 169.200,41.200 169.347,41.200 171.000 L 41.200 172.800 49.000 172.800 L 56.800 172.800 56.800 171.800 C 56.800 171.000,57.000 170.800,57.800 170.800 C 58.600 170.800,58.800 170.600,58.800 169.800 C 58.800 168.867,58.933 168.800,60.800 168.800 C 62.667 168.800,62.800 168.733,62.800 167.800 C 62.800 167.000,63.000 166.800,63.800 166.800 C 64.600 166.800,64.800 166.600,64.800 165.800 C 64.800 165.000,65.000 164.800,65.800 164.800 C 66.600 164.800,66.800 164.600,66.800 163.800 C 66.800 163.000,67.000 162.800,67.800 162.800 C 68.595 162.800,68.800 162.599,68.800 161.818 C 68.800 160.875,68.919 160.830,71.700 160.718 L 74.600 160.600 74.722 158.700 L 74.844 156.800 77.822 156.800 C 80.714 156.800,80.800 156.772,80.800 155.822 C 80.800 154.939,80.985 154.832,82.700 154.722 C 84.314 154.618,84.619 154.466,84.726 153.711 C 84.849 152.846,85.007 152.819,90.526 152.711 C 95.958 152.605,96.217 152.562,96.591 151.709 C 96.970 150.845,97.184 150.815,103.791 150.709 C 110.510 150.601,110.602 150.588,110.728 149.700 C 110.847 148.859,111.050 148.800,113.828 148.800 C 116.731 148.800,116.800 148.777,116.800 147.800 C 116.800 146.817,116.855 146.800,119.978 146.800 L 123.156 146.800 123.278 148.700 L 123.400 150.600 127.100 150.715 L 130.800 150.830 130.800 149.815 C 130.800 148.851,130.911 148.800,133.000 148.800 L 135.200 148.800 135.200 151.000 C 135.200 153.080,135.145 153.200,134.200 153.200 L 133.200 153.200 133.200 165.200 L 133.200 177.200 132.200 177.200 L 131.200 177.200 131.200 188.000 L 131.200 198.800 132.200 198.800 L 133.200 198.800 133.200 209.800 L 133.200 220.800 134.200 220.800 L 135.200 220.800 135.200 226.800 L 135.200 232.800 136.200 232.800 C 137.000 232.800,137.200 233.000,137.200 233.800 C 137.200 234.600,137.400 234.800,138.200 234.800 L 139.200 234.800 139.200 239.000 L 139.200 243.200 138.200 243.200 L 137.200 243.200 137.200 250.000 L 137.200 256.800 141.200 256.800 L 145.200 256.800 145.200 268.800 L 145.200 280.800 146.182 280.800 C 146.722 280.800,147.614 281.250,148.164 281.800 L 149.164 282.800 157.982 282.800 L 166.800 282.800 166.800 281.800 C 166.800 281.000,167.000 280.800,167.800 280.800 L 168.800 280.800 168.800 274.800 L 168.800 268.800 169.800 268.800 L 170.800 268.800 170.800 263.000 L 170.800 257.200 169.800 257.200 C 169.000 257.200,168.800 257.000,168.800 256.200 C 168.800 255.403,168.599 255.200,167.809 255.200 L 166.819 255.200 166.709 248.300 C 166.602 241.529,166.584 241.398,165.718 241.274 C 164.923 241.161,164.824 240.885,164.718 238.474 C 164.615 236.143,164.484 235.749,163.700 235.405 C 163.148 235.163,162.800 234.660,162.800 234.105 C 162.800 233.406,162.572 233.200,161.800 233.200 L 160.800 233.200 160.800 227.000 C 160.800 220.604,161.042 219.764,162.408 221.410 C 162.862 221.957,162.985 221.957,163.589 221.410 C 164.104 220.944,165.267 220.800,168.531 220.800 L 172.800 220.800 172.800 219.800 C 172.800 219.000,173.000 218.800,173.800 218.800 C 174.600 218.800,174.800 218.600,174.800 217.800 C 174.800 216.867,174.933 216.800,176.800 216.800 C 178.667 216.800,178.800 216.733,178.800 215.800 C 178.800 214.867,178.933 214.800,180.800 214.800 C 182.667 214.800,182.800 214.733,182.800 213.800 L 182.800 212.800 186.800 212.800 L 190.800 212.800 190.800 211.800 C 190.800 211.000,191.000 210.800,191.800 210.800 C 192.600 210.800,192.800 210.600,192.800 209.800 C 192.800 209.000,193.000 208.800,193.800 208.800 C 194.594 208.800,194.800 208.598,194.800 207.823 C 194.800 206.960,194.998 206.832,196.500 206.723 C 197.802 206.629,198.291 206.393,198.588 205.716 C 198.801 205.230,199.341 204.780,199.788 204.716 C 200.279 204.646,200.651 204.244,200.728 203.700 C 200.820 203.049,201.124 202.800,201.828 202.800 C 202.598 202.800,202.800 202.592,202.800 201.800 C 202.800 201.000,203.000 200.800,203.800 200.800 C 204.600 200.800,204.800 200.600,204.800 199.800 C 204.800 198.867,204.933 198.800,206.800 198.800 C 208.667 198.800,208.800 198.733,208.800 197.800 C 208.800 197.000,209.000 196.800,209.800 196.800 C 210.600 196.800,210.800 196.600,210.800 195.800 C 210.800 195.000,211.000 194.800,211.800 194.800 C 212.600 194.800,212.800 194.600,212.800 193.800 C 212.800 192.867,212.933 192.800,214.800 192.800 C 216.667 192.800,216.800 192.733,216.800 191.800 C 216.800 191.000,217.000 190.800,217.800 190.800 C 218.600 190.800,218.800 190.600,218.800 189.800 C 218.800 188.867,218.933 188.800,220.800 188.800 C 222.667 188.800,222.800 188.733,222.800 187.800 C 222.800 187.000,223.000 186.800,223.800 186.800 C 224.600 186.800,224.800 186.600,224.800 185.800 C 224.800 185.000,225.000 184.800,225.800 184.800 C 226.600 184.800,226.800 184.600,226.800 183.800 C 226.800 183.000,227.000 182.800,227.800 182.800 C 228.623 182.800,228.801 182.605,228.806 181.700 L 228.812 180.600 229.315 181.600 C 229.711 182.386,230.175 182.626,231.484 182.722 C 232.849 182.822,233.173 183.002,233.275 183.722 C 233.354 184.279,233.729 184.647,234.300 184.728 C 235.141 184.847,235.200 185.050,235.200 187.828 C 235.200 190.731,235.223 190.800,236.200 190.800 C 237.000 190.800,237.200 191.000,237.200 191.800 C 237.200 192.600,237.400 192.800,238.200 192.800 C 239.044 192.800,239.200 192.987,239.200 194.000 C 239.200 195.540,240.460 196.800,242.000 196.800 C 243.173 196.800,243.200 196.844,243.200 198.800 C 243.200 200.667,243.267 200.800,244.200 200.800 C 245.133 200.800,245.200 200.933,245.200 202.800 C 245.200 204.667,245.267 204.800,246.200 204.800 C 247.000 204.800,247.200 205.000,247.200 205.800 C 247.200 206.600,247.400 206.800,248.200 206.800 C 249.133 206.800,249.200 206.933,249.200 208.800 C 249.200 210.667,249.267 210.800,250.200 210.800 C 251.000 210.800,251.200 211.000,251.200 211.800 C 251.200 212.600,251.400 212.800,252.200 212.800 C 253.000 212.800,253.200 213.000,253.200 213.800 C 253.200 214.600,253.400 214.800,254.200 214.800 C 255.000 214.800,255.200 215.000,255.200 215.800 C 255.200 216.600,255.400 216.800,256.200 216.800 C 257.000 216.800,257.200 217.000,257.200 217.800 C 257.200 218.600,257.400 218.800,258.200 218.800 L 259.200 218.800 259.200 222.800 L 259.200 226.800 260.200 226.800 C 261.000 226.800,261.200 227.000,261.200 227.800 C 261.200 228.733,261.333 228.800,263.200 228.800 C 265.067 228.800,265.200 228.867,265.200 229.800 C 265.200 230.733,265.333 230.800,267.200 230.800 C 269.067 230.800,269.200 230.867,269.200 231.800 C 269.200 232.600,269.400 232.800,270.200 232.800 C 271.000 232.800,271.200 233.000,271.200 233.800 C 271.200 234.796,271.214 234.800,274.992 234.800 C 278.704 234.800,278.790 234.779,279.036 233.800 C 279.192 233.179,279.570 232.800,280.036 232.800 C 280.496 232.800,280.879 232.424,281.030 231.823 C 281.179 231.228,281.613 230.798,282.138 230.723 C 282.679 230.646,283.048 230.265,283.128 229.700 C 283.220 229.049,283.524 228.800,284.228 228.800 C 284.985 228.800,285.200 228.590,285.200 227.847 C 285.200 227.243,285.482 226.820,285.969 226.692 C 286.529 226.546,286.812 225.990,287.014 224.646 C 287.225 223.241,287.462 222.800,288.008 222.800 C 288.564 222.800,288.786 222.356,288.997 220.823 C 289.219 219.205,289.426 218.824,290.134 218.723 C 290.862 218.620,291.019 218.297,291.122 216.700 C 291.232 214.985,291.339 214.800,292.222 214.800 C 292.999 214.800,293.200 214.594,293.200 213.800 C 293.200 213.000,293.400 212.800,294.200 212.800 C 294.993 212.800,295.200 212.598,295.200 211.824 C 295.200 210.985,295.410 210.831,296.700 210.724 C 297.803 210.633,298.305 210.362,298.595 209.700 C 298.828 209.169,299.342 208.800,299.848 208.800 C 300.758 208.800,301.185 207.881,301.195 205.900 C 301.199 204.995,301.377 204.800,302.200 204.800 C 303.133 204.800,303.200 204.667,303.200 202.800 C 303.200 201.056,303.304 200.800,304.013 200.800 C 304.790 200.800,304.820 200.595,304.713 196.100 L 304.600 191.400 302.949 191.279 C 301.399 191.166,301.284 191.072,301.068 189.744 C 300.685 187.380,300.329 187.200,296.031 187.200 C 291.648 187.200,291.200 187.430,291.200 189.680 L 291.200 191.200 287.200 191.200 L 283.200 191.200 283.200 192.200 C 283.200 193.133,283.067 193.200,281.200 193.200 C 279.333 193.200,279.200 193.267,279.200 194.200 C 279.200 195.133,279.067 195.200,277.200 195.200 L 275.200 195.200 275.200 191.833 C 275.200 187.976,274.999 187.200,274.001 187.200 C 273.578 187.200,273.187 186.803,273.043 186.228 C 272.890 185.621,272.460 185.207,271.899 185.128 C 271.322 185.046,270.954 184.678,270.872 184.100 C 270.778 183.437,270.477 183.200,269.730 183.200 C 269.124 183.200,268.398 182.797,267.929 182.200 C 267.475 181.624,266.730 181.200,266.171 181.200 C 265.402 181.200,265.200 180.992,265.200 180.200 C 265.200 179.400,265.000 179.200,264.200 179.200 C 263.400 179.200,263.200 179.000,263.200 178.200 C 263.200 177.408,262.998 177.200,262.228 177.200 C 261.524 177.200,261.220 176.951,261.128 176.300 C 261.047 175.730,260.679 175.354,260.125 175.275 C 259.579 175.198,259.202 174.821,259.125 174.275 C 259.048 173.735,258.670 173.353,258.138 173.277 C 257.613 173.202,257.179 172.772,257.030 172.177 C 256.875 171.560,256.498 171.200,256.007 171.200 C 255.297 171.200,255.219 170.857,255.114 167.300 L 255.000 163.400 253.900 163.273 C 253.036 163.174,252.800 162.938,252.800 162.173 C 252.800 161.402,252.593 161.200,251.800 161.200 C 251.000 161.200,250.800 161.000,250.800 160.200 C 250.800 159.400,250.600 159.200,249.800 159.200 C 249.000 159.200,248.800 159.000,248.800 158.200 C 248.800 157.400,248.600 157.200,247.800 157.200 C 247.000 157.200,246.800 157.000,246.800 156.200 C 246.800 155.400,246.600 155.200,245.800 155.200 C 245.000 155.200,244.800 155.000,244.800 154.200 C 244.800 153.400,244.600 153.200,243.800 153.200 C 242.909 153.200,242.800 153.035,242.800 151.680 C 242.800 149.221,242.721 149.200,233.520 149.200 L 225.200 149.200 225.200 150.200 L 225.200 151.200 221.200 151.200 L 217.200 151.200 217.200 152.200 C 217.200 153.000,217.000 153.200,216.200 153.200 C 215.400 153.200,215.200 153.400,215.200 154.200 C 215.200 155.133,215.067 155.200,213.200 155.200 C 211.333 155.200,211.200 155.267,211.200 156.200 C 211.200 157.133,211.067 157.200,209.200 157.200 C 207.343 157.200,207.200 157.270,207.200 158.182 C 207.200 159.115,207.068 159.169,204.500 159.282 C 202.143 159.385,201.750 159.514,201.405 160.300 C 201.163 160.852,200.660 161.200,200.105 161.200 C 199.406 161.200,199.200 161.428,199.200 162.200 C 199.200 162.993,198.998 163.200,198.227 163.200 C 197.472 163.200,197.216 163.447,197.087 164.300 C 196.931 165.324,196.916 165.310,196.860 164.100 C 196.808 162.964,196.926 162.800,197.800 162.800 C 198.733 162.800,198.800 162.667,198.800 160.800 C 198.800 158.933,198.867 158.800,199.800 158.800 C 200.572 158.800,200.800 158.594,200.800 157.895 C 200.800 157.340,201.148 156.837,201.700 156.595 C 202.392 156.291,202.628 155.812,202.722 154.525 C 202.822 153.151,203.001 152.827,203.722 152.725 C 204.519 152.611,204.611 152.338,204.717 149.742 C 204.818 147.258,204.940 146.857,205.646 146.672 C 206.094 146.555,206.557 146.086,206.676 145.630 C 206.871 144.885,207.194 144.800,209.847 144.800 C 212.730 144.800,212.800 144.776,212.800 143.800 C 212.800 143.000,213.000 142.800,213.800 142.800 C 214.615 142.800,214.807 142.596,214.840 141.700 L 214.880 140.600 215.158 141.600 C 215.394 142.449,215.673 142.600,217.000 142.600 C 218.327 142.600,218.606 142.449,218.842 141.600 L 219.120 140.600 219.160 141.700 L 219.200 142.800 230.200 142.800 L 241.200 142.800 241.200 143.800 L 241.200 144.800 245.200 144.800 L 249.200 144.800 249.200 145.800 L 249.200 146.800 264.172 146.800 L 279.144 146.800 279.272 147.700 C 279.396 148.570,279.563 148.604,284.274 148.712 C 288.964 148.820,289.152 148.858,289.274 149.712 C 289.389 150.520,289.654 150.610,292.212 150.716 C 294.671 150.817,295.073 150.942,295.412 151.716 C 295.778 152.550,296.080 152.606,300.744 152.713 C 306.355 152.841,306.800 152.667,306.800 150.351 L 306.800 148.800 309.371 148.800 C 311.637 148.800,312.035 148.919,312.729 149.800 C 313.449 150.716,313.781 150.800,316.678 150.800 C 320.673 150.800,320.800 150.669,320.800 146.520 L 320.800 143.200 317.700 143.124 C 314.842 143.055,314.783 143.037,316.950 142.903 C 318.920 142.781,321.654 141.600,319.967 141.600 C 319.642 141.600,319.700 141.353,320.138 140.869 C 320.502 140.466,320.800 139.926,320.800 139.669 C 320.800 139.411,321.141 139.200,321.557 139.200 C 321.974 139.200,322.424 138.915,322.557 138.567 C 322.906 137.659,322.857 137.200,322.413 137.200 C 322.199 137.200,322.137 137.492,322.274 137.849 C 322.480 138.385,322.370 138.367,321.643 137.749 L 320.763 137.000 322.681 136.800 L 324.600 136.600 324.600 134.000 L 324.600 131.400 319.067 131.288 C 313.565 131.178,313.529 131.183,312.738 132.188 C 311.957 133.181,311.840 133.200,306.571 133.200 L 301.200 133.200 301.200 134.200 L 301.200 135.200 295.200 135.200 L 289.200 135.200 289.200 134.200 C 289.200 133.260,289.074 133.200,287.095 133.200 C 285.295 133.200,284.932 133.069,284.595 132.300 C 284.233 131.474,283.898 131.391,280.526 131.285 C 277.079 131.178,276.844 131.116,276.726 130.285 C 276.607 129.452,276.377 129.393,272.789 129.287 C 269.293 129.183,268.946 129.100,268.589 128.287 C 268.201 127.401,268.182 127.400,255.527 127.294 L 242.854 127.189 242.727 126.299 C 242.656 125.798,242.261 125.343,241.826 125.260 C 240.827 125.070,238.931 123.174,238.739 122.174 C 238.599 121.449,238.150 121.393,231.695 121.291 L 224.800 121.181 224.800 120.191 C 224.800 119.225,224.726 119.200,221.800 119.200 L 218.800 119.200 218.800 109.981 L 218.800 100.762 217.800 99.835 C 217.250 99.325,216.800 98.524,216.800 98.054 C 216.800 97.410,216.554 97.200,215.800 97.200 C 215.000 97.200,214.800 97.000,214.800 96.200 C 214.800 95.400,214.600 95.200,213.800 95.200 C 213.000 95.200,212.800 95.000,212.800 94.200 C 212.800 93.400,212.600 93.200,211.800 93.200 C 211.000 93.200,210.800 93.000,210.800 92.200 C 210.800 91.400,210.600 91.200,209.800 91.200 C 209.000 91.200,208.800 91.000,208.800 90.200 C 208.800 89.267,208.667 89.200,206.800 89.200 C 204.933 89.200,204.800 89.133,204.800 88.200 L 204.800 87.200 198.800 87.200 L 192.800 87.200 192.800 86.200 L 192.800 85.200 185.000 85.200 L 177.200 85.200 177.200 86.178 M323.358 137.668 C 323.162 137.985,323.289 138.051,323.755 137.873 C 324.163 137.716,324.342 137.770,324.197 138.005 C 324.063 138.222,324.143 138.400,324.376 138.400 C 324.609 138.400,324.800 138.130,324.800 137.800 C 324.800 137.090,323.773 136.996,323.358 137.668 M323.704 141.812 C 323.359 142.192,323.339 142.439,323.639 142.624 C 324.231 142.990,325.071 142.107,324.580 141.633 C 324.348 141.410,324.007 141.479,323.704 141.812 M241.200 248.200 C 241.200 249.000,241.000 249.200,240.200 249.200 C 239.222 249.200,239.200 249.267,239.200 252.200 C 239.200 255.638,239.908 256.800,242.000 256.800 C 243.013 256.800,243.200 256.956,243.200 257.800 C 243.200 258.600,243.400 258.800,244.200 258.800 C 245.144 258.800,245.200 258.922,245.200 260.977 L 245.200 263.154 243.500 263.277 C 242.198 263.371,241.709 263.607,241.412 264.284 C 241.199 264.770,240.659 265.220,240.212 265.284 C 239.721 265.354,239.349 265.756,239.272 266.300 C 239.180 266.951,238.876 267.200,238.172 267.200 C 237.402 267.200,237.200 267.408,237.200 268.200 C 237.200 269.318,236.373 269.532,235.609 268.611 C 234.942 267.808,233.231 269.014,233.213 270.300 C 233.203 270.990,232.967 271.200,232.200 271.200 C 231.400 271.200,231.200 271.400,231.200 272.200 C 231.200 273.122,231.056 273.200,229.358 273.200 C 227.869 273.200,227.364 273.392,226.729 274.200 C 226.163 274.919,225.557 275.200,224.571 275.200 C 223.375 275.200,223.200 275.328,223.200 276.200 C 223.200 277.000,223.000 277.200,222.200 277.200 C 221.400 277.200,221.200 277.400,221.200 278.200 C 221.200 279.000,221.000 279.200,220.200 279.200 C 219.400 279.200,219.200 279.400,219.200 280.200 C 219.200 281.000,219.000 281.200,218.200 281.200 C 217.400 281.200,217.200 281.400,217.200 282.200 C 217.200 283.133,217.067 283.200,215.200 283.200 C 213.333 283.200,213.200 283.267,213.200 284.200 C 213.200 285.000,213.000 285.200,212.200 285.200 C 211.400 285.200,211.200 285.400,211.200 286.200 C 211.200 287.000,211.000 287.200,210.200 287.200 C 209.400 287.200,209.200 287.400,209.200 288.200 C 209.200 289.000,209.000 289.200,208.200 289.200 C 207.405 289.200,207.200 289.401,207.200 290.182 C 207.200 291.124,207.081 291.170,204.304 291.282 C 201.809 291.384,201.388 291.507,201.261 292.174 C 201.070 293.174,199.174 295.070,198.174 295.260 C 197.737 295.344,197.344 295.798,197.272 296.304 C 197.180 296.951,196.874 297.200,196.172 297.200 C 195.402 297.200,195.200 297.408,195.200 298.200 C 195.200 299.133,195.067 299.200,193.200 299.200 C 191.333 299.200,191.200 299.267,191.200 300.200 C 191.200 301.000,191.000 301.200,190.200 301.200 C 189.400 301.200,189.200 301.400,189.200 302.200 C 189.200 303.000,189.000 303.200,188.200 303.200 C 187.400 303.200,187.200 303.400,187.200 304.200 C 187.200 305.000,187.000 305.200,186.200 305.200 C 185.400 305.200,185.200 305.400,185.200 306.200 C 185.200 306.993,184.998 307.200,184.227 307.200 C 183.472 307.200,183.216 307.447,183.087 308.300 C 182.995 308.905,182.893 307.555,182.860 305.300 C 182.800 301.209,182.798 301.200,181.800 301.200 C 180.909 301.200,180.800 301.035,180.800 299.680 C 180.800 297.368,180.417 297.200,175.149 297.200 C 169.850 297.200,169.200 297.487,169.200 299.829 C 169.200 301.025,169.072 301.200,168.200 301.200 C 167.204 301.200,167.200 301.213,167.200 305.000 C 167.200 308.787,167.204 308.800,168.200 308.800 C 169.000 308.800,169.200 309.000,169.200 309.800 C 169.200 310.600,169.400 310.800,170.200 310.800 C 170.993 310.800,171.200 311.002,171.200 311.773 C 171.200 312.528,171.447 312.784,172.300 312.913 L 173.400 313.080 172.300 313.140 C 171.409 313.189,171.200 313.390,171.200 314.200 C 171.200 315.000,171.000 315.200,170.200 315.200 C 169.400 315.200,169.200 315.400,169.200 316.200 C 169.200 317.000,169.000 317.200,168.200 317.200 C 167.400 317.200,167.200 317.400,167.200 318.200 C 167.200 319.000,167.000 319.200,166.200 319.200 C 165.400 319.200,165.200 319.400,165.200 320.200 C 165.200 321.000,165.000 321.200,164.200 321.200 C 163.400 321.200,163.200 321.400,163.200 322.200 C 163.200 323.000,163.000 323.200,162.200 323.200 C 161.408 323.200,161.200 323.402,161.200 324.172 C 161.200 324.876,160.951 325.180,160.300 325.272 C 159.532 325.381,159.382 325.679,159.278 327.300 C 159.168 329.015,159.061 329.200,158.178 329.200 L 157.200 329.200 157.200 339.769 L 157.200 350.338 158.443 351.582 L 159.687 352.825 164.143 352.713 C 168.421 352.605,168.605 352.564,168.728 351.700 C 168.820 351.049,169.124 350.800,169.828 350.800 C 170.598 350.800,170.800 350.592,170.800 349.800 C 170.800 349.000,171.000 348.800,171.800 348.800 C 172.600 348.800,172.800 348.600,172.800 347.800 C 172.800 347.000,173.000 346.800,173.800 346.800 C 174.600 346.800,174.800 346.600,174.800 345.800 C 174.800 345.000,175.000 344.800,175.800 344.800 C 176.600 344.800,176.800 344.600,176.800 343.800 C 176.800 343.000,177.000 342.800,177.800 342.800 C 178.600 342.800,178.800 342.600,178.800 341.800 C 178.800 341.000,179.000 340.800,179.800 340.800 C 180.594 340.800,180.800 340.599,180.800 339.822 C 180.800 338.939,180.985 338.832,182.700 338.722 C 184.321 338.618,184.619 338.468,184.728 337.700 C 184.841 336.906,185.087 336.800,186.828 336.800 C 188.665 336.800,188.800 336.731,188.800 335.800 C 188.800 334.867,188.933 334.800,190.800 334.800 C 192.667 334.800,192.800 334.733,192.800 333.800 C 192.800 333.000,193.000 332.800,193.800 332.800 C 194.600 332.800,194.800 332.600,194.800 331.800 C 194.800 330.594,195.230 330.516,195.907 331.600 C 196.856 333.120,198.800 331.850,198.800 329.711 C 198.800 329.006,199.026 328.800,199.800 328.800 C 200.600 328.800,200.800 328.600,200.800 327.800 C 200.800 326.839,200.899 326.800,203.320 326.800 C 206.247 326.800,206.800 326.409,206.800 324.343 C 206.800 322.868,206.825 322.844,208.500 322.723 C 209.813 322.628,210.290 322.395,210.595 321.700 C 210.837 321.148,211.340 320.800,211.895 320.800 C 212.594 320.800,212.800 320.572,212.800 319.800 C 212.800 318.867,212.933 318.800,214.800 318.800 C 216.667 318.800,216.800 318.733,216.800 317.800 C 216.800 317.000,217.000 316.800,217.800 316.800 C 218.600 316.800,218.800 316.600,218.800 315.800 C 218.800 314.867,218.933 314.800,220.800 314.800 C 222.667 314.800,222.800 314.733,222.800 313.800 C 222.800 313.000,223.000 312.800,223.800 312.800 C 224.600 312.800,224.800 312.600,224.800 311.800 C 224.800 311.000,225.000 310.800,225.800 310.800 C 226.600 310.800,226.800 310.600,226.800 309.800 C 226.800 309.000,227.000 308.800,227.800 308.800 C 228.600 308.800,228.800 308.600,228.800 307.800 C 228.800 306.867,228.933 306.800,230.800 306.800 C 232.667 306.800,232.800 306.733,232.800 305.800 C 232.800 304.867,232.933 304.800,234.800 304.800 C 236.667 304.800,236.800 304.733,236.800 303.800 C 236.800 303.000,237.000 302.800,237.800 302.800 C 238.600 302.800,238.800 302.600,238.800 301.800 C 238.800 301.000,239.000 300.800,239.800 300.800 C 240.600 300.800,240.800 300.600,240.800 299.800 C 240.800 298.867,240.933 298.800,242.800 298.800 C 244.667 298.800,244.800 298.733,244.800 297.800 C 244.800 297.000,245.000 296.800,245.800 296.800 C 246.600 296.800,246.800 296.600,246.800 295.800 C 246.800 295.000,247.000 294.800,247.800 294.800 C 248.600 294.800,248.800 294.600,248.800 293.800 C 248.800 293.000,249.000 292.800,249.800 292.800 C 250.600 292.800,250.800 292.600,250.800 291.800 C 250.800 290.867,250.933 290.800,252.800 290.800 C 254.667 290.800,254.800 290.733,254.800 289.800 C 254.800 289.002,255.001 288.800,255.792 288.800 C 256.511 288.800,256.852 288.531,257.030 287.823 C 257.179 287.228,257.613 286.798,258.138 286.723 C 258.679 286.646,259.048 286.265,259.128 285.700 C 259.220 285.049,259.524 284.800,260.228 284.800 C 260.998 284.800,261.200 284.592,261.200 283.800 C 261.200 283.000,261.400 282.800,262.200 282.800 C 263.000 282.800,263.200 282.600,263.200 281.800 C 263.200 281.000,263.400 280.800,264.200 280.800 C 265.000 280.800,265.200 280.600,265.200 279.800 C 265.200 279.008,265.402 278.800,266.171 278.800 C 266.730 278.800,267.475 278.376,267.929 277.800 C 268.583 276.967,269.056 276.800,270.750 276.800 C 272.587 276.800,272.809 276.703,273.036 275.800 C 273.256 274.924,273.504 274.800,275.036 274.800 C 276.557 274.800,276.817 274.673,277.030 273.823 C 277.179 273.228,277.613 272.798,278.138 272.723 C 278.679 272.646,279.048 272.265,279.128 271.700 C 279.276 270.660,279.698 270.554,280.388 271.385 C 281.004 272.127,283.200 270.674,283.200 269.525 C 283.200 269.018,283.501 268.800,284.200 268.800 C 285.000 268.800,285.200 268.600,285.200 267.800 C 285.200 267.000,285.400 266.800,286.200 266.800 C 287.000 266.800,287.200 266.600,287.200 265.800 C 287.200 265.000,287.400 264.800,288.200 264.800 C 289.000 264.800,289.200 264.600,289.200 263.800 C 289.200 263.000,289.400 262.800,290.200 262.800 C 291.000 262.800,291.200 262.600,291.200 261.800 C 291.200 260.997,291.399 260.800,292.213 260.800 L 293.225 260.800 293.113 256.100 C 293.006 251.632,292.957 251.394,292.138 251.277 C 291.613 251.202,291.179 250.772,291.030 250.177 C 290.855 249.479,290.509 249.200,289.820 249.200 C 289.124 249.200,288.820 248.949,288.728 248.300 L 288.600 247.400 276.900 247.294 L 265.200 247.188 265.200 248.194 C 265.200 249.179,265.138 249.200,262.200 249.200 C 259.267 249.200,259.200 249.222,259.200 250.200 C 259.200 251.000,259.000 251.200,258.200 251.200 C 257.400 251.200,257.200 251.400,257.200 252.200 C 257.200 253.000,257.000 253.200,256.200 253.200 C 255.267 253.200,255.200 253.067,255.200 251.200 C 255.200 249.244,255.173 249.200,254.000 249.200 C 252.987 249.200,252.800 249.044,252.800 248.200 L 252.800 247.200 247.000 247.200 L 241.200 247.200 241.200 248.200 M163.360 349.359 C 163.242 349.667,163.473 350.252,163.873 350.659 C 164.273 351.067,164.531 351.361,164.447 351.314 C 164.364 351.267,163.919 351.492,163.458 351.814 C 162.232 352.673,161.328 352.614,162.051 351.723 C 162.424 351.263,162.440 351.143,162.100 351.347 C 161.825 351.512,161.600 351.457,161.600 351.224 C 161.600 350.991,161.870 350.800,162.200 350.800 C 162.573 350.800,162.800 350.422,162.800 349.800 C 162.800 349.250,162.974 348.800,163.187 348.800 C 163.401 348.800,163.478 349.052,163.360 349.359 " stroke="none" fill="#fcfcfc" fill-rule="evenodd"></path><path id="path1" d="M322.636 138.200 C 322.474 138.846,322.104 139.200,321.592 139.200 C 321.157 139.200,320.800 139.448,320.800 139.751 C 320.800 140.054,320.521 140.533,320.181 140.816 C 319.687 141.226,319.667 141.396,320.081 141.659 C 320.481 141.912,320.485 141.989,320.100 141.994 C 319.825 141.997,319.600 142.170,319.600 142.377 C 319.600 142.584,320.500 142.747,321.600 142.739 C 322.700 142.730,323.499 142.560,323.376 142.362 C 323.076 141.875,323.722 141.901,324.320 142.400 C 324.669 142.691,324.691 142.669,324.400 142.320 C 324.180 142.056,324.000 141.685,324.000 141.496 C 324.000 141.307,324.180 141.264,324.400 141.400 C 324.642 141.549,324.800 141.004,324.800 140.024 C 324.800 139.131,324.609 138.400,324.376 138.400 C 324.143 138.400,324.063 138.222,324.197 138.005 C 324.342 137.770,324.163 137.716,323.755 137.873 C 323.289 138.051,323.162 137.985,323.358 137.668 C 323.517 137.411,323.476 137.200,323.267 137.200 C 323.058 137.200,322.774 137.650,322.636 138.200 M162.800 349.800 C 162.800 350.422,162.573 350.800,162.200 350.800 C 161.870 350.800,161.600 350.991,161.600 351.224 C 161.600 351.457,161.825 351.512,162.100 351.347 C 162.440 351.143,162.424 351.263,162.051 351.723 C 161.328 352.614,162.232 352.673,163.458 351.814 C 163.919 351.492,164.364 351.267,164.447 351.314 C 164.531 351.361,164.273 351.067,163.873 350.659 C 163.473 350.252,163.242 349.667,163.360 349.359 C 163.478 349.052,163.401 348.800,163.187 348.800 C 162.974 348.800,162.800 349.250,162.800 349.800 " stroke="none" fill="#f4f4f4" fill-rule="evenodd"></path><path id="path2" d="" stroke="none" fill="#fc100f8" fill-rule="evenodd"></path><path id="path3" d="" stroke="none" fill="#fc100f8" fill-rule="evenodd"></path><path id="path4" d="" stroke="none" fill="#fc100f8" fill-rule="evenodd"></path></g></svg>